<?xml version="1.0" standalone="no"?>
<!DOCTYPE svg PUBLIC "-//W3C//DTD SVG 20010904//EN"
 "http://www.w3.org/TR/2001/REC-SVG-20010904/DTD/svg10.dtd">
<svg version="1.0" xmlns="http://www.w3.org/2000/svg"
 width="338.000000pt" height="295.000000pt" viewBox="0 0 338.000000 295.000000"
 preserveAspectRatio="xMidYMid meet">

<g transform="translate(0.000000,295.000000) scale(0.100000,-0.100000)"
fill="#000000" stroke="none">
<path d="M2102 2938 c-9 -9 -12 -107 -12 -381 l0 -370 -24 24 c-13 13 -41 34
-62 47 -130 78 -216 128 -264 156 -94 54 -240 114 -350 142 -91 24 -124 28
-255 28 -199 1 -304 -23 -477 -109 -248 -124 -520 -380 -615 -582 -64 -133
-49 -233 41 -285 50 -28 132 -30 411 -10 99 7 239 17 310 22 202 14 331 63
448 170 58 53 125 149 152 216 l16 41 72 6 c143 13 291 68 373 140 43 37 44
38 74 22 16 -8 30 -18 30 -21 0 -3 -23 -26 -50 -51 -28 -25 -62 -64 -75 -87
-20 -34 -30 -42 -57 -44 -18 -1 -62 -16 -97 -32 -35 -17 -70 -30 -78 -30 -29
0 -71 -30 -87 -64 -21 -44 -21 -39 15 -81 l31 -35 -32 -76 c-83 -189 -227
-354 -367 -419 -195 -91 -256 -130 -351 -225 -134 -135 -190 -311 -147 -457
31 -105 158 -232 263 -263 275 -82 613 140 840 551 101 184 174 429 188 637 7
98 8 102 30 102 42 0 57 63 30 123 -8 18 -22 58 -31 91 -18 65 -52 125 -84
147 l-20 14 27 39 c15 21 46 54 69 73 l42 35 28 -43 28 -42 3 -279 3 -278 -25
-33 c-35 -46 -56 -100 -56 -144 0 -42 37 -130 63 -152 26 -21 26 -551 0 -572
-26 -22 -63 -110 -63 -152 0 -44 21 -98 55 -143 23 -30 25 -42 25 -128 l0 -96
-130 0 c-114 0 -130 -2 -139 -18 -6 -11 -6 -24 0 -35 9 -16 38 -17 344 -17
310 0 335 1 344 18 6 11 6 24 0 35 -9 14 -26 17 -114 17 l-105 0 0 311 0 311
25 30 c35 42 63 97 75 151 14 63 -9 136 -61 192 l-39 42 0 227 0 226 45 66
c25 36 45 71 45 77 0 27 22 87 31 87 6 0 27 -16 46 -35 l35 -35 -25 -30 c-33
-39 -81 -183 -73 -217 4 -14 15 -27 25 -30 15 -4 20 -19 25 -81 30 -334 230
-669 472 -788 72 -36 84 -39 163 -39 70 0 94 5 128 23 127 67 186 184 158 313
-26 122 -158 262 -305 324 -138 59 -225 148 -299 309 l-22 48 20 22 c12 12 21
30 21 40 0 22 -53 76 -74 76 -9 0 -33 9 -53 20 -21 11 -47 20 -59 20 -13 0
-33 14 -49 36 -16 20 -24 35 -19 32 5 -2 32 -15 59 -28 47 -23 59 -24 195 -23
156 3 309 -15 379 -43 23 -9 57 -34 75 -56 36 -42 78 -50 84 -16 5 25 -42 122
-103 213 -133 201 -296 300 -451 275 -99 -16 -167 -57 -298 -178 -71 -65 -82
-72 -91 -56 -5 10 -27 36 -47 59 l-38 42 0 129 c0 126 1 130 32 184 63 112
211 234 332 274 70 24 86 34 86 56 0 36 -31 41 -101 16 -120 -42 -188 -86
-284 -182 l-65 -67 0 266 c0 232 -2 266 -16 271 -29 11 -160 6 -172 -6z m118
-695 l0 -637 -22 -23 c-12 -13 -25 -23 -30 -23 -4 0 -8 297 -8 660 l0 660 30
0 30 0 0 -637z m-940 262 c111 -18 242 -60 337 -109 l68 -34 -70 -6 c-164 -16
-312 -45 -420 -84 -53 -19 -70 -47 -42 -71 12 -9 37 -5 118 17 172 49 286 65
412 60 62 -2 120 -9 130 -15 17 -9 14 -13 -28 -41 -27 -18 -72 -41 -102 -52
-56 -21 -204 -50 -255 -50 -44 0 -65 -16 -78 -57 -44 -138 -162 -262 -306
-321 -89 -37 -166 -50 -344 -57 -80 -4 -221 -13 -315 -21 -93 -8 -189 -12
-213 -8 -52 8 -88 35 -97 73 -8 36 20 120 66 196 46 78 242 281 348 361 93 70
295 174 376 194 169 42 269 48 415 25z m1656 -473 c55 -28 139 -105 191 -176
24 -32 42 -60 40 -62 -1 -2 -32 4 -67 13 -48 12 -116 17 -255 17 -176 1 -193
3 -237 24 -25 13 -52 30 -58 37 -20 24 50 48 152 53 93 4 115 15 103 51 -8 25
-39 34 -99 30 -51 -5 -50 -1 7 24 56 23 166 18 223 -11z m-1084 -102 c32 -15
62 -65 78 -130 8 -30 20 -64 27 -76 7 -11 11 -23 7 -26 -3 -3 -33 0 -66 8
-134 32 -320 132 -297 161 6 7 20 13 30 13 10 0 45 13 76 30 61 31 106 37 145
20z m468 -130 c0 -25 -7 -55 -15 -66 -13 -17 -14 -11 -14 66 0 77 1 83 14 66
8 -11 15 -41 15 -66z m-622 -99 c32 -16 90 -39 130 -51 l72 -22 0 -44 c0 -71
-29 -254 -54 -344 -101 -361 -333 -679 -588 -804 -169 -83 -315 -66 -430 50
-71 70 -93 122 -92 219 0 69 4 89 32 146 64 133 216 265 385 335 45 19 106 51
137 71 117 77 229 219 306 388 22 47 40 85 42 85 1 0 28 -13 60 -29z m939 -53
c29 -13 53 -26 53 -30 0 -12 -161 -88 -186 -88 -26 0 -29 9 -14 59 24 85 56
98 147 59z m83 -214 c28 -56 67 -110 110 -157 58 -62 83 -80 182 -129 138 -68
214 -132 257 -220 51 -101 40 -178 -35 -251 -52 -51 -110 -71 -176 -64 -249
30 -509 397 -543 768 l-7 76 43 12 c33 8 119 43 125 50 0 1 20 -38 44 -85z
m-500 -317 l0 -383 -30 -29 -30 -29 0 389 c0 385 0 389 22 412 12 13 25 23 30
23 4 0 8 -172 8 -383z m100 -197 c0 -25 -7 -55 -15 -66 -13 -17 -14 -11 -14
66 0 77 1 83 14 66 8 -11 15 -41 15 -66z m-100 -565 l0 -275 -30 0 -30 0 0
247 0 247 27 28 c15 15 28 28 30 28 2 0 3 -124 3 -275z"/>
<path d="M1697 1263 c-3 -5 -20 -44 -38 -88 -126 -307 -308 -527 -485 -589
-47 -16 -63 -38 -45 -60 20 -24 51 -19 132 21 151 75 310 264 423 504 85 181
92 219 42 219 -14 0 -27 -3 -29 -7z"/>
<path d="M933 554 c-9 -25 10 -48 48 -56 69 -15 112 19 69 54 -29 24 -108 25
-117 2z"/>
<path d="M2620 1185 c-12 -14 -8 -27 24 -92 54 -109 100 -178 164 -245 73 -77
114 -103 142 -88 26 14 26 46 -1 61 -72 38 -162 149 -230 283 -48 95 -72 114
-99 81z"/>
<path d="M3041 761 c-19 -34 7 -53 68 -49 61 3 85 24 62 52 -20 24 -117 22
-130 -3z"/>
</g>
</svg>
